# xmcd
#
# Track frame offsets:
# 182
# 16947
# 30700
# 46390
# 56997
# 69915
# 93507
# 105530
# 122905
# 137957
# 149217
# 162525
# 173625
#
# Disc length: 2484 seconds
#
#
# Revision: 0
# Processed by: cddbd v1.5.1PL0 Copyright (c) Steve Scherf et al.
# Submitted via: FreeRIP 2.93 
#
DISCID=c009b20d
DTITLE=Bill Conlon - The Winds of Change
DYEAR=1995
DGENRE=Country
TTITLE0=The winds of change
TTITLE1=Here's the heart
TTITLE2=Too late to try again
TTITLE3=Alone in Sanatone
TTITLE4=Here's to you (and tears to me)
TTITLE5=I'm only passing through
TTITLE6=Can you feel it
TTITLE7=What if I say goodbye
TTITLE8=Your old love letters
TTITLE9=I don't care
TTITLE10=Somebody else's moon
TTITLE11=Walking the floor over me
TTITLE12=Only 16
EXTD=x
EXTT0=
EXTT1=
EXTT2=
EXTT3=
EXTT4=
EXTT5=
EXTT6=
EXTT7=
EXTT8=
EXTT9=
EXTT10=
EXTT11=
EXTT12=
PLAYORDER=
